HIERARCHY
ROOT Hips
{
	OFFSET 0.00 0.00 0.00
	CHANNELS 6 Xposition Yposition Zposition Xrotation Yrotation Zrotation
	JOINT Spine
	{
		OFFSET 0.00000 7.50895 0.00000
		CHANNELS 3 Xrotation Yrotation Zrotation
		JOINT Head
		{
			OFFSET 0.00000 13.86115 0.00000
			CHANNELS 3 Xrotation Yrotation Zrotation
			End Site
			{
				OFFSET 0.00000 4.52755 0.00000
			}
		}
		JOINT LeftShoulder
		{
			OFFSET 0.00000 8.20478 0.00000
			CHANNELS 3 Xrotation Yrotation Zrotation
			JOINT LeftArm
			{
				OFFSET 6.63596 0.00000 0.00000
				CHANNELS 3 Xrotation Yrotation Zrotation
				JOINT LeftForeArm
				{
					OFFSET 10.27422 0.00000 0.00000
					CHANNELS 3 Yrotation Zrotation Xrotation
					JOINT LeftHand
					{
						OFFSET 8.52215 0.00000 0.00000
						CHANNELS 3 Xrotation Yrotation Zrotation
						JOINT LeftHandThumb1
						{
							OFFSET 0.00000 0.00000 0.00000
							CHANNELS 3 Xrotation Zrotation Yrotation
							End Site
							{
								OFFSET 0.00000 0.00000 3.93700
							}
						}
						End Site
						{
							OFFSET 3.93700 0.00000 0.00000
						}
					}
				}
			}
		}
		JOINT RightShoulder
		{
			OFFSET 0.00000 8.20478 0.00000
			CHANNELS 3 Xrotation Yrotation Zrotation
			JOINT RightArm
			{
				OFFSET -6.63596 0.00000 0.00000
				CHANNELS 3 Xrotation Yrotation Zrotation
				JOINT RightForeArm
				{
					OFFSET -10.27422 0.00000 0.00000
					CHANNELS 3 Yrotation Zrotation Xrotation
					JOINT RightHand
					{
						OFFSET -8.52215 0.00000 0.00000
						CHANNELS 3 Xrotation Yrotation Zrotation
						JOINT RightHandThumb1
						{
							OFFSET 0.00000 0.00000 0.00000
							CHANNELS 3 Xrotation Zrotation Yrotation
							End Site
							{
								OFFSET 0.00000 0.00000 3.93700
							}
						}
						End Site
						{
							OFFSET -3.93700 0.00000 0.00000
						}
					}
				}
			}
		}
	}
	JOINT LeftUpLeg
	{
		OFFSET 3.00056 0.00000 0.00000
		CHANNELS 3 Xrotation Yrotation Zrotation
		JOINT LeftLeg
		{
			OFFSET 0.00000 -16.49085 0.00000
			CHANNELS 3 Xrotation Yrotation Zrotation
			JOINT LeftFoot
			{
				OFFSET 0.00000 -14.55658 0.00000
				CHANNELS 3 Xrotation Yrotation Zrotation
				JOINT LeftToeBase
				{
					OFFSET 0.00000 -1.25038 4.66650
					CHANNELS 3 Xrotation Yrotation Zrotation
					End Site
					{
						OFFSET 0.00000 0.00000 2.95275
					}
				}
			}
		}
	}
	JOINT RightUpLeg
	{
		OFFSET -3.00056 0.00000 0.00000
		CHANNELS 3 Xrotation Yrotation Zrotation
		JOINT RightLeg
		{
			OFFSET 0.00000 -16.49085 0.00000
			CHANNELS 3 Xrotation Yrotation Zrotation
			JOINT RightFoot
			{
				OFFSET 0.00000 -14.55658 0.00000
				CHANNELS 3 Xrotation Yrotation Zrotation
				JOINT RightToeBase
				{
					OFFSET 0.00000 -1.25038 4.66650
					CHANNELS 3 Xrotation Yrotation Zrotation
					End Site
					{
						OFFSET 0.00000 0.00000 2.95275
					}
				}
			}
		}
	}
}
MOTION
Frames: 9
Frame Time: 0.008333
 6.9674 32.2029 -1.8063 7.0314 -18.6604 1.7415 -10.7935 13.0910 -23.5815 0.2872 6.8033 -1.0788 19.1366 18.5386 13.1985 -16.3383 -11.8344 -59.4194 -16.2924 -0.0000 10.6692 0.1208 28.0865 -0.2567 33.1476 -0.0000 26.2537 -25.4340 0.1309 -39.1455 -24.8469 -15.0808 19.8633 22.4183 0.0000 -18.7573 0.0428 0.2945 -8.2746 32.8623 0.0000 -24.3270 -13.6666 9.8403 -5.5232 23.8742 -0.0000 -0.0000 -23.4292 21.8111 -1.9715 10.0102 0.0000 -0.0000 4.9963 4.7531 13.9435 -1.3780 -0.0000 -0.0000 -8.9090 -0.2706 -5.5346 -2.1551 0.0000 -0.0000
 6.9579 32.1948 -1.8133 6.9084 -18.6677 1.6262 -10.7303 13.1874 -23.8126 0.4403 6.8350 -1.1559 19.1117 18.4429 13.0928 -16.2662 -11.7916 -59.5313 -16.3628 -0.0000 10.7040 0.2107 28.2589 -0.4451 33.1476 -0.0000 26.2537 -25.4491 0.1667 -39.2581 -25.0936 -14.8703 19.5780 22.5279 0.0000 -18.7828 0.0301 0.2088 -8.2086 32.8623 0.0000 -24.3270 -13.7279 9.8779 -5.3897 24.1990 0.0000 0.0000 -23.5169 21.7665 -2.0601 10.0084 0.0000 -0.0000 5.1218 4.7393 14.0390 -1.4098 0.0000 -0.0000 -8.8979 -0.2342 -5.5287 -2.1674 0.0000 -0.0000
 6.9506 32.1869 -1.8241 6.7959 -18.6906 1.5124 -10.6863 13.2412 -24.0314 0.6142 6.8900 -1.2187 19.1501 18.4384 12.9396 -16.3039 -11.7738 -59.6466 -16.3653 -0.0000 10.6742 0.0989 28.2998 -0.2087 33.1476 -0.0000 26.2537 -25.4514 0.2511 -39.2995 -25.3979 -14.6519 19.2148 22.6457 0.0000 -18.9345 0.0373 0.2570 -8.2480 32.8623 0.0000 -24.3270 -13.7690 9.8891 -5.2754 24.4437 0.0000 0.0000 -23.6116 21.7991 -2.0762 9.9689 0.0000 -0.0000 5.2169 4.7496 14.1360 -1.4201 0.0000 0.0000 -8.8968 -0.2172 -5.5295 -2.1321 0.0000 0.0000
 6.9424 32.1786 -1.8352 6.6826 -18.7159 1.3797 -10.6385 13.3043 -24.2163 0.7466 6.9028 -1.3676 19.1365 18.4018 12.7908 -16.2993 -11.6613 -59.7740 -16.4511 -0.0000 10.6993 -0.1872 28.3771 0.3938 33.1476 -0.0000 26.2537 -25.4975 0.3058 -39.3983 -25.6942 -14.4158 18.9420 22.7801 0.0000 -19.0178 0.0534 0.3667 -8.2915 32.8623 0.0000 -24.3270 -13.8380 9.9301 -5.1257 24.7511 0.0000 0.0000 -23.7372 21.7791 -2.0961 10.0028 -0.0000 0.0000 5.3162 4.7441 14.2522 -1.4376 0.0000 -0.0000 -8.8638 -0.1812 -5.5935 -2.2356 0.0000 0.0000
 6.9369 32.1700 -1.8526 6.5907 -18.7562 1.2455 -10.6186 13.3498 -24.3655 0.8678 6.9982 -1.5449 19.1723 18.3785 12.5940 -16.3117 -11.5882 -59.8801 -16.4891 -0.0000 10.6915 -0.1019 28.4943 0.2137 33.1476 -0.0000 26.2537 -25.5522 0.4570 -39.4994 -25.9290 -14.2598 18.6454 23.0345 0.0000 -19.1430 0.0503 0.3412 -8.3905 32.8623 0.0000 -24.3270 -13.9574 10.0085 -4.9508 25.1003 0.0000 0.0000 -23.8324 21.7277 -2.2220 9.9367 0.0000 -0.0000 5.3601 4.7683 14.3790 -1.4127 0.0000 0.0000 -8.8801 -0.1621 -5.6215 -2.2320 0.0000 0.0000
 6.9279 32.1626 -1.8659 6.4953 -18.7742 1.1441 -10.5894 13.4017 -24.5957 0.9839 7.0778 -1.6193 19.1840 18.3224 12.4880 -16.2587 -11.5050 -59.9988 -16.5719 -0.0000 10.6834 -0.3988 28.5596 0.8340 33.1476 -0.0000 26.2537 -25.6149 0.5207 -39.5989 -26.2218 -14.0598 18.4060 23.2781 0.0000 -19.2228 0.0544 0.3812 -8.1254 32.8623 0.0000 -24.3270 -13.9908 10.0220 -4.8406 25.2907 -0.0000 -0.0000 -23.9188 21.7401 -2.2083 9.9012 0.0000 -0.0000 5.4319 4.7830 14.4763 -1.4202 -0.0000 -0.0000 -8.8846 -0.1529 -5.5931 -2.1480 -0.0000 0.0000
 6.9204 32.1542 -1.8829 6.3810 -18.7827 0.9975 -10.5265 13.4416 -24.7738 1.1241 7.1326 -1.7208 19.2088 18.2520 12.3673 -16.2530 -11.3548 -60.1596 -16.6774 -0.0000 10.7625 -0.5437 28.5978 1.1357 33.1476 -0.0000 26.2537 -25.6309 0.5197 -39.7031 -26.5687 -13.8765 18.1753 23.6020 0.0000 -19.3723 0.0667 0.4692 -8.0950 32.8623 0.0000 -24.3270 -14.0555 10.0194 -4.6888 25.5559 0.0000 -0.0000 -24.0436 21.7455 -2.1897 9.9006 0.0000 -0.0000 5.5050 4.7858 14.6136 -1.4126 0.0000 -0.0000 -8.8725 -0.1503 -5.6175 -2.1720 -0.0000 -0.0000
 6.9141 32.1457 -1.8942 6.2484 -18.8060 0.8664 -10.4541 13.4690 -24.9654 1.2254 7.2210 -1.8403 19.2714 18.2256 12.2323 -16.2167 -11.3640 -60.2927 -16.7230 -0.0000 10.8296 -0.6881 28.7126 1.4320 33.1476 -0.0000 26.2537 -25.7220 0.6371 -39.8000 -26.8072 -13.7422 17.9313 23.9864 0.0000 -19.4696 0.0694 0.4926 -8.0217 32.8623 0.0000 -24.3270 -14.0849 10.1103 -4.5442 25.8224 -0.0000 -0.0000 -24.1498 21.6850 -2.2192 9.9110 -0.0000 0.0000 5.6208 4.7669 14.7206 -1.4134 0.0000 -0.0000 -8.8790 -0.1037 -5.6286 -2.1861 0.0000 -0.0000
 6.9091 32.1371 -1.9036 6.1130 -18.8276 0.7562 -10.3789 13.5331 -25.1912 1.3760 7.2981 -1.9004 19.3289 18.1712 12.1446 -16.1509 -11.3842 -60.4523 -16.7808 -0.0000 10.9411 -0.7157 28.7962 1.4855 33.1476 -0.0000 26.2537 -25.7380 0.6530 -39.8806 -27.2058 -13.6002 17.6842 24.4050 0.0000 -19.6205 0.0822 0.5927 -7.8928 32.8623 0.0000 -24.3270 -14.1094 10.1383 -4.4353 26.0861 -0.0000 -0.0000 -24.2399 21.6831 -2.2595 9.9341 0.0000 0.0000 5.7423 4.7570 14.8023 -1.4218 -0.0000 -0.0000 -8.8980 -0.0635 -5.6452 -2.1720 -0.0000 -0.0000
